<svg width="292" height="95" viewBox="0 0 292 95" fill="none" xmlns="http://www.w3.org/2000/svg">
<path d="M81.863 43.2313L76.6008 54.535H75L90.2822 21.7559H91.883L107.165 54.5417H101.126L95.8637 43.2313H81.863ZM88.8645 28.2237L82.5484 41.7913H95.1805L88.8645 28.2237Z" fill="white"/>
<path d="M123.769 53.0771H140.174V54.5417H118.295V21.7559H123.762L123.769 53.0771Z" fill="white"/>
<path d="M151.308 54.5422V21.7564H166.912C168.553 21.7383 170.168 22.1741 171.578 23.0156C172.964 23.8364 174.121 24.9926 174.942 26.3779C175.782 27.7892 176.217 29.4043 176.199 31.0463C176.217 32.6876 175.782 34.3021 174.942 35.7124C174.122 37.0984 172.964 38.2548 171.578 39.0747C170.168 39.9162 168.553 40.352 166.912 40.3339H156.776V54.5422H151.308ZM156.776 38.8916H162.909C163.942 38.9072 164.968 38.7101 165.923 38.3126C166.877 37.9151 167.74 37.3257 168.457 36.5809C169.196 35.8633 169.781 35.0023 170.177 34.0506C170.572 33.0989 170.768 32.0766 170.754 31.0463C170.77 30.0136 170.575 28.9886 170.18 28.0344C169.785 27.0803 169.198 26.2171 168.457 25.4982C167.738 24.7562 166.875 24.1694 165.921 23.7739C164.967 23.3784 163.942 23.1826 162.909 23.1987H156.776V38.8916Z" fill="white"/>
<path d="M185.047 43.2313L179.796 54.5417H178.196L193.467 21.7559H195.07L210.352 54.5417H204.313L199.05 43.2313H185.047ZM192.049 28.2237L185.735 41.798H198.363L192.049 28.2237Z" fill="white"/>
<path d="M246.563 37.4008V50.4883C244.899 52.0255 242.958 53.2325 240.843 54.0449C238.468 54.9582 235.929 55.3688 233.387 55.2509C230.845 55.1329 228.355 54.4889 226.074 53.3595C223.514 52.095 221.303 50.2213 219.636 47.903C217.515 44.9128 216.454 41.6562 216.454 38.1331C216.454 34.6101 217.515 31.3542 219.636 28.3655C221.303 26.0479 223.514 24.1751 226.074 22.9112C228.606 21.6457 231.4 20.9912 234.23 21.0001C236.487 20.9943 238.725 21.4053 240.832 22.2124C242.948 23.0236 244.892 24.2264 246.563 25.7578L245.509 26.8116C244.287 25.4738 242.814 24.3891 241.174 23.6189C239.573 22.8724 237.83 22.4788 236.064 22.465C234.298 22.4511 232.549 22.8172 230.937 23.5386C229.614 24.1218 228.394 24.9141 227.322 25.885C226.258 26.8479 225.341 27.9611 224.599 29.1893C223.768 30.5275 223.14 31.981 222.734 33.5027C222.332 35.0139 222.128 36.5713 222.129 38.1353C222.124 40.3228 222.543 42.4906 223.364 44.5184C224.186 46.5594 225.424 48.4065 227.001 49.9414C228.373 51.2998 230.008 52.3635 231.806 53.067C232.928 53.4924 234.108 53.7468 235.306 53.8216H235.612C236.109 53.8217 236.606 53.7911 237.099 53.7301C238.455 53.5522 239.754 53.0674 240.894 52.3124H240.919V38.8431H232.435V37.4008H246.563Z" fill="white"/>
<path d="M274.836 21.0002C276.674 20.992 278.502 21.2854 280.245 21.8687C283.621 22.9998 286.565 25.1455 288.676 28.0128C289.735 29.4461 290.564 31.0363 291.132 32.7258C292.29 36.24 292.29 40.033 291.132 43.5473C290.563 45.2366 289.735 46.8267 288.676 48.2603C287.63 49.6802 286.375 50.9335 284.954 51.9776C282.017 54.1301 278.471 55.2907 274.83 55.2907C271.189 55.2907 267.643 54.1301 264.706 51.9776C261.839 49.8679 259.694 46.9234 258.565 43.5473C257.404 40.0335 257.404 36.2396 258.565 32.7258C259.409 30.1987 260.829 27.9024 262.713 26.0182C264.597 24.134 266.893 22.7134 269.419 21.8687C271.165 21.2849 272.995 20.9916 274.836 21.0002ZM274.836 22.4424C274.11 22.4426 273.387 22.5342 272.684 22.7148C271.271 23.1009 269.962 23.7973 268.852 24.7532C267.741 25.7022 266.787 26.8212 266.026 28.0686C265.111 29.579 264.429 31.2181 264.001 32.9312C263.132 36.3463 263.132 39.9246 264.001 43.3396C264.428 45.053 265.111 46.6922 266.026 48.2023C266.787 49.4505 267.741 50.5702 268.852 51.5199C269.963 52.4744 271.271 53.1699 272.684 53.556C273.387 53.7374 274.11 53.8297 274.836 53.8306C275.561 53.8314 276.284 53.7391 276.986 53.556C278.398 53.1699 279.707 52.4744 280.817 51.5199C281.928 50.5702 282.882 49.4505 283.643 48.2023C284.559 46.6922 285.241 45.053 285.668 43.3396C286.538 39.9246 286.538 36.3463 285.668 32.9312C285.241 31.2181 284.558 29.579 283.643 28.0686C282.882 26.8212 281.928 25.7022 280.817 24.7532C279.707 23.7973 278.399 23.1009 276.986 22.7148C276.284 22.5325 275.561 22.441 274.836 22.4424Z" fill="white"/>
<path d="M112.875 91.521V76.4553H120.046C120.8 76.4467 121.542 76.6468 122.189 77.0336C122.826 77.4109 123.358 77.9421 123.736 78.5786C124.115 79.2301 124.315 79.9704 124.315 80.7241C124.315 81.4778 124.115 82.218 123.736 82.8696C123.357 83.5056 122.825 84.0367 122.189 84.4146C121.542 84.8013 120.8 85.0015 120.046 84.9928H115.388V91.521H112.875ZM115.388 84.3297H118.206C119.162 84.3297 120.079 83.9499 120.756 83.2737C121.432 82.5975 121.812 81.6804 121.812 80.7241C121.812 79.7678 121.432 78.8507 120.756 78.1745C120.079 77.4983 119.162 77.1184 118.206 77.1184H115.388V84.3297Z" fill="white"/>
<path d="M128.36 91.521V76.4553H135.531C136.285 76.4469 137.027 76.647 137.675 77.0336C138.312 77.4109 138.844 77.9421 139.222 78.5785C139.601 79.2301 139.8 79.9704 139.8 80.7241C139.8 81.4778 139.601 82.218 139.222 82.8696C138.843 83.5056 138.311 84.0367 137.675 84.4146C137.027 84.8011 136.285 85.0012 135.531 84.9928L140.282 91.521H137.17L132.419 84.9928H130.872V91.521H128.36ZM130.872 84.3297H133.692C134.648 84.3297 135.565 83.9498 136.241 83.2737C136.917 82.5975 137.297 81.6804 137.297 80.7241C137.297 79.7678 136.917 78.8507 136.241 78.1745C135.565 77.4983 134.648 77.1184 133.692 77.1184H130.872V84.3297Z" fill="white"/>
<path d="M150.942 76.1133C151.786 76.1099 152.626 76.2449 153.426 76.513C154.979 77.0322 156.332 78.0187 157.302 79.3372C157.785 79.9967 158.161 80.7274 158.419 81.5029C158.951 83.1181 158.951 84.8618 158.419 86.4771C158.161 87.2524 157.784 87.9829 157.302 88.6427C156.821 89.2937 156.245 89.8694 155.594 90.3507C154.935 90.8349 154.203 91.2116 153.426 91.467C151.811 91.991 150.07 91.991 148.454 91.467C147.678 91.2116 146.947 90.8349 146.289 90.3507C144.971 89.3811 143.985 88.0283 143.465 86.4771C142.932 84.8618 142.932 83.1181 143.465 81.5029C143.724 80.7281 144.1 79.9977 144.581 79.3372C145.057 78.6848 145.632 78.1101 146.284 77.6338C146.945 77.153 147.675 76.7765 148.45 76.5174C149.253 76.2471 150.095 76.1106 150.942 76.1133ZM150.942 76.7831C150.608 76.7836 150.276 76.8264 149.953 76.9104C149.303 77.0868 148.701 77.4065 148.191 77.8458C147.68 78.282 147.243 78.7968 146.894 79.3707C146.472 80.0633 146.158 80.8162 145.963 81.6033C145.564 83.1732 145.564 84.8179 145.963 86.3878C146.158 87.1749 146.472 87.9277 146.894 88.6204C147.243 89.1939 147.681 89.7086 148.191 90.1453C148.702 90.5838 149.303 90.9034 149.953 91.0807C150.276 91.164 150.608 91.206 150.942 91.2058C151.275 91.2068 151.606 91.1648 151.928 91.0807C152.578 90.9034 153.179 90.5838 153.69 90.1453C154.201 89.7086 154.639 89.194 154.989 88.6204C155.409 87.9267 155.723 87.1742 155.92 86.3878C156.319 84.8179 156.319 83.1732 155.92 81.6033C155.723 80.8168 155.409 80.0643 154.989 79.3707C154.64 78.7967 154.201 78.282 153.69 77.8458C153.181 77.4044 152.58 77.0824 151.931 76.9037C151.608 76.8187 151.275 76.7759 150.942 76.7764V76.7831Z" fill="white"/>
<path d="M163.094 91.5209V76.4553H170.265C171.019 76.447 171.762 76.6471 172.41 77.0336C173.046 77.4116 173.577 77.9427 173.955 78.5785C174.334 79.2301 174.533 79.9704 174.533 80.7241C174.533 81.4778 174.334 82.218 173.955 82.8696C173.577 83.505 173.046 84.036 172.41 84.4146C171.762 84.8011 171.019 85.0012 170.265 84.9928H165.596V91.5209H163.094ZM165.607 84.3297H168.425C169.381 84.3297 170.298 83.9498 170.975 83.2737C171.651 82.5975 172.031 81.6804 172.031 80.7241C172.031 79.7678 171.651 78.8507 170.975 78.1745C170.298 77.4983 169.381 77.1184 168.425 77.1184H165.596L165.607 84.3297Z" fill="white"/>
<path d="M178.78 76.46H188.827V77.1297H181.294V82.9747H186.315V83.6445H181.294V90.8469H188.831V91.5167H178.784L178.78 76.46Z" fill="white"/>
<path d="M192.876 91.521V76.4554H200.045C200.8 76.4466 201.543 76.6468 202.191 77.0336C202.828 77.4104 203.359 77.9418 203.736 78.5786C204.115 79.2301 204.314 79.9704 204.314 80.7241C204.314 81.4778 204.115 82.218 203.736 82.8696C203.358 83.5059 202.827 84.0372 202.191 84.4146C201.543 84.8014 200.8 85.0015 200.045 84.9928L204.799 91.521H201.686L196.933 84.9928H195.388V91.521H192.876ZM195.388 84.3297H198.206C199.162 84.3297 200.079 83.9499 200.755 83.2737C201.431 82.5975 201.811 81.6804 201.811 80.7241C201.811 79.7678 201.431 78.8507 200.755 78.1745C200.079 77.4983 199.162 77.1184 198.206 77.1184H195.388V84.3297Z" fill="white"/>
<path d="M220.778 76.4579V77.1277H215.114V91.5235H212.609V77.121H206.952V76.4512L220.778 76.4579Z" fill="white"/>
<path d="M224.614 91.5256V76.46H227.128V91.5256H224.614Z" fill="white"/>
<path d="M231.805 76.46H241.852V77.1297H234.315V82.9747H239.329V83.6445H234.315V90.8469H241.854V91.5167H231.807L231.805 76.46Z" fill="white"/>
<path d="M255.879 78.5615C255.514 78.2705 255.123 78.0135 254.711 77.7935C254.177 77.5078 253.608 77.2924 253.019 77.1527C252.446 77.0259 251.86 76.9622 251.273 76.9629H251.021C250.661 76.9636 250.303 77.0055 249.954 77.088C249.602 77.1725 249.264 77.3071 248.951 77.4876C248.706 77.6286 248.484 77.8063 248.292 78.0145C248.1 78.2253 247.958 78.4773 247.877 78.7512C247.836 78.9193 247.815 79.0917 247.815 79.2647C247.818 79.3919 247.83 79.5187 247.85 79.6443C247.889 79.8552 247.965 80.0577 248.074 80.2426C248.258 80.5737 248.491 80.8748 248.766 81.1357C249.041 81.395 249.34 81.6275 249.659 81.83C250.254 82.2006 250.857 82.5474 251.467 82.8704L251.711 83.0066C252.157 83.2462 252.598 83.4896 253.035 83.7367C253.468 83.9871 253.889 84.259 254.296 84.5516C254.628 84.7915 254.937 85.0612 255.22 85.3575C255.505 85.651 255.749 85.9814 255.946 86.3399C256.223 86.8229 256.369 87.3703 256.368 87.9273C256.368 87.9987 256.368 88.0701 256.368 88.1505C256.324 88.6053 256.189 89.0466 255.97 89.4477C255.769 89.8293 255.501 90.1724 255.18 90.4613C254.859 90.7515 254.498 90.9944 254.108 91.1824C253.651 91.4139 253.164 91.5836 252.662 91.687C252.158 91.7914 251.646 91.8475 251.132 91.8544H250.891C250.388 91.8541 249.885 91.8191 249.386 91.7495C248.828 91.6726 248.279 91.5387 247.748 91.3498C246.835 91.0303 245.993 90.5359 245.27 89.8942L245.743 89.4209C246.106 89.714 246.497 89.9713 246.91 90.1889C247.444 90.4754 248.013 90.6908 248.603 90.8296C249.204 90.9627 249.818 91.0293 250.434 91.0283H250.612C250.972 91.0217 251.33 90.976 251.679 90.8922C252.032 90.809 252.371 90.6743 252.684 90.4925C252.928 90.3534 253.148 90.1763 253.336 89.9679C253.521 89.7511 253.658 89.4977 253.738 89.2244C253.786 89.0712 253.811 88.9116 253.811 88.7511C253.808 88.6133 253.794 88.4759 253.769 88.3403C253.729 88.1262 253.653 87.9202 253.546 87.7308C253.359 87.4054 253.125 87.1097 252.851 86.8534C252.576 86.5936 252.277 86.3597 251.958 86.1546C251.378 85.784 250.783 85.4372 250.172 85.1142C250.09 85.0651 250 85.0159 249.909 84.9668C249.462 84.7436 249.031 84.4957 248.601 84.2457C248.163 83.9931 247.739 83.7174 247.33 83.4196C247 83.1787 246.69 82.9098 246.406 82.6159C246.121 82.3224 245.877 81.992 245.68 81.6335C245.41 81.1474 245.269 80.6002 245.27 80.0439V79.8207C245.304 79.3622 245.429 78.9151 245.638 78.5057C245.844 78.1251 246.113 77.7817 246.433 77.4898C246.752 77.1999 247.111 76.9578 247.5 76.7709C247.96 76.5401 248.447 76.3705 248.951 76.2664C249.456 76.1618 249.969 76.105 250.485 76.0967H250.737C251.233 76.0966 251.729 76.1324 252.22 76.2038C252.782 76.2806 253.336 76.4145 253.872 76.6035C254.785 76.9299 255.628 77.4295 256.352 78.0748L255.879 78.5615Z" fill="white"/>
<path d="M0 0V83.3755H9.68166V8.36052L0 0Z" fill="white"/>
<path d="M22.6577 11.332V94.7075H32.3423V19.6926L22.6577 11.332Z" fill="white"/>
<path d="M45.3184 0V83.3755H55V8.36052L45.3184 0Z" fill="white"/>
</svg>
