<svg id="Layer_1" data-name="Layer 1" xmlns="http://www.w3.org/2000/svg" width="1278.6" height="941.8" viewBox="0 0 1278.6 941.8">
  <defs>
    <style>
      .cls-1 {
        fill: #fff;
      }
    </style>
  </defs>
  <g>
    <g>
      <polygon class="cls-1" points="514 0.6 513.8 358.9 556.5 358.9 556.5 40.5 514 0.6"/>
      <polygon class="cls-1" points="618.2 65.8 618.2 424.8 660.6 424.8 660.6 107 618.2 65.8"/>
      <polygon class="cls-1" points="722 0 721.4 358.4 764.8 358.4 764.8 41.4 722 0"/>
    </g>
    <g>
      <g>
        <path class="cls-1" d="M52.7,677.4,21.7,744H12.3l90-193.2h9.5l90,193.2H166.2l-31-66.6ZM94,589,56.8,668.9h74.4Z" transform="translate(-12.3 -4.2)"/>
        <path class="cls-1" d="M299.6,735.4h96.7V744H267.4V550.8h32.2Z" transform="translate(-12.3 -4.2)"/>
        <path class="cls-1" d="M461.9,744V550.8h92a53.2,53.2,0,0,1,27.5,7.4A58.6,58.6,0,0,1,601.2,578a54.8,54.8,0,0,1,0,55,58,58,0,0,1-19.8,19.9,53.2,53.2,0,0,1-27.5,7.4H494.1V744Zm32.2-92.2h36.2a46.3,46.3,0,0,0,46.2-46.3,46.3,46.3,0,0,0-46.2-46.2H494.1Z" transform="translate(-12.3 -4.2)"/>
        <path class="cls-1" d="M660.7,677.4l-31,66.6h-9.4l90-193.2h9.5l90,193.2H774.2l-31-66.6ZM702,589l-37.2,79.9h74.4Z" transform="translate(-12.3 -4.2)"/>
        <path class="cls-1" d="M1023.2,643v77.1a104.9,104.9,0,0,1-33.7,21,107.9,107.9,0,0,1-39,7.2,105.2,105.2,0,0,1-48-11.3,103.2,103.2,0,0,1-38-32.1q-18.7-26.4-18.7-57.6t18.7-57.5a102.5,102.5,0,0,1,38-32.2,107.8,107.8,0,0,1,120.7,16.8l-6.2,6.2a81.2,81.2,0,0,0-25.6-18.8,72.7,72.7,0,0,0-60.3-.5,79.6,79.6,0,0,0-21.3,13.8,88.1,88.1,0,0,0-16,19.5,93.6,93.6,0,0,0-11,25.4,105.5,105.5,0,0,0-3.6,27.3,98.4,98.4,0,0,0,7.3,37.6,92.8,92.8,0,0,0,21.4,32,84.6,84.6,0,0,0,28.3,18.5,70.2,70.2,0,0,0,20.7,4.4h1.7a84.9,84.9,0,0,0,8.8-.5,53.6,53.6,0,0,0,22.4-8.4h.1V651.5h-50V643Z" transform="translate(-12.3 -4.2)"/>
        <path class="cls-1" d="M1189.8,546.4a100.1,100.1,0,0,1,31.9,5.1,102.1,102.1,0,0,1,64.1,64,102,102,0,0,1,0,63.7,102.7,102.7,0,0,1-36.4,49.7,97.1,97.1,0,0,1-27.7,14.3,102.3,102.3,0,0,1-63.8,0,97.7,97.7,0,0,1-27.8-14.3,102.3,102.3,0,0,1-36.2-49.7,100.7,100.7,0,0,1,14.4-91.5,100.6,100.6,0,0,1,21.8-21.9,103.1,103.1,0,0,1,27.8-14.3A99.2,99.2,0,0,1,1189.8,546.4Zm0,8.5a49.7,49.7,0,0,0-12.7,1.6,57.5,57.5,0,0,0-22.6,12,79.6,79.6,0,0,0-16.6,19.5,105.1,105.1,0,0,0-12,28.7,125.5,125.5,0,0,0,0,61.3,103.2,103.2,0,0,0,12,28.6,81.9,81.9,0,0,0,16.6,19.6,57.5,57.5,0,0,0,22.6,12,49.7,49.7,0,0,0,12.7,1.6,48.4,48.4,0,0,0,12.6-1.6,56.8,56.8,0,0,0,22.6-12,82.3,82.3,0,0,0,16.7-19.6,103,103,0,0,0,11.9-28.6,125.5,125.5,0,0,0,0-61.3,104.9,104.9,0,0,0-11.9-28.7,80,80,0,0,0-16.7-19.5,56.8,56.8,0,0,0-22.6-12A48.4,48.4,0,0,0,1189.8,554.9Z" transform="translate(-12.3 -4.2)"/>
      </g>
      <g>
        <path class="cls-1" d="M256.4,944.2v-83h39.5a23,23,0,0,1,11.8,3.2,24.7,24.7,0,0,1,8.5,8.5,23,23,0,0,1,3.2,11.8,22.4,22.4,0,0,1-3.2,11.8,25,25,0,0,1-8.5,8.6,22.9,22.9,0,0,1-11.8,3.1H270.2v36Zm13.8-39.6h15.5a20,20,0,0,0,19.9-19.9,19.5,19.5,0,0,0-5.8-14,19.2,19.2,0,0,0-14.1-5.8H270.2Z" transform="translate(-12.3 -4.2)"/>
        <path class="cls-1" d="M341.7,944.2v-83h39.5a23,23,0,0,1,11.8,3.2,24.7,24.7,0,0,1,8.5,8.5,23,23,0,0,1,3.2,11.8,22.4,22.4,0,0,1-3.2,11.8,25,25,0,0,1-8.5,8.6,22.9,22.9,0,0,1-11.8,3.1l26.1,36H390.2l-26.2-36h-8.5v36Zm13.8-39.6H371a19.3,19.3,0,0,0,14.1-5.9,19.8,19.8,0,0,0,0-28,19.2,19.2,0,0,0-14.1-5.8H355.5Z" transform="translate(-12.3 -4.2)"/>
        <path class="cls-1" d="M466.1,859.3a42.3,42.3,0,0,1,13.7,2.2,43.5,43.5,0,0,1,11.9,6.2A43.9,43.9,0,0,1,507.3,889a41.4,41.4,0,0,1,2.2,13.7,41.8,41.8,0,0,1-2.2,13.7,43.5,43.5,0,0,1-6.2,11.9,44.1,44.1,0,0,1-9.4,9.4,43.5,43.5,0,0,1-11.9,6.2,45.2,45.2,0,0,1-13.7,2.2,44.2,44.2,0,0,1-13.7-2.2,42.7,42.7,0,0,1-12-6.2,44.1,44.1,0,0,1-9.4-9.4,43.2,43.2,0,0,1-6.1-11.9,41.8,41.8,0,0,1-2.2-13.7,41.4,41.4,0,0,1,2.2-13.7,42.9,42.9,0,0,1,15.5-21.3,42.7,42.7,0,0,1,12-6.2A41.4,41.4,0,0,1,466.1,859.3Zm0,3.7a25.1,25.1,0,0,0-5.5.6,27.6,27.6,0,0,0-9.7,5.2,33.7,33.7,0,0,0-7.1,8.4,41.8,41.8,0,0,0-5.2,12.3,55.2,55.2,0,0,0,0,26.4,44.2,44.2,0,0,0,5.2,12.3,37.7,37.7,0,0,0,7.1,8.4,25.9,25.9,0,0,0,9.7,5.1,20.2,20.2,0,0,0,5.5.7,20,20,0,0,0,5.4-.7,25.1,25.1,0,0,0,9.7-5.1,41.1,41.1,0,0,0,7.2-8.4,47.1,47.1,0,0,0,5.1-12.3,55.3,55.3,0,0,0,0-26.4,44.4,44.4,0,0,0-5.1-12.3,36.4,36.4,0,0,0-7.2-8.4,26.8,26.8,0,0,0-9.7-5.2A24.8,24.8,0,0,0,466.1,863Z" transform="translate(-12.3 -4.2)"/>
        <path class="cls-1" d="M532.9,944.2v-83h39.5a23.1,23.1,0,0,1,11.9,3.2,24.7,24.7,0,0,1,8.5,8.5,23,23,0,0,1,3.2,11.8,22.4,22.4,0,0,1-3.2,11.8,25,25,0,0,1-8.5,8.6,23,23,0,0,1-11.9,3.1H546.8v36Zm13.9-39.6h15.5a20,20,0,0,0,19.9-19.9,19.5,19.5,0,0,0-5.8-14,19.2,19.2,0,0,0-14.1-5.8H546.8Z" transform="translate(-12.3 -4.2)"/>
        <path class="cls-1" d="M619.4,861.2h55.4v3.7H633.2v32.2h27.7v3.7H633.2v39.7h41.6v3.7H619.4Z" transform="translate(-12.3 -4.2)"/>
        <path class="cls-1" d="M697.1,944.2v-83h39.5a23,23,0,0,1,11.8,3.2,24.7,24.7,0,0,1,8.5,8.5,23,23,0,0,1,3.2,11.8,22.4,22.4,0,0,1-3.2,11.8,25,25,0,0,1-8.5,8.6,22.9,22.9,0,0,1-11.8,3.1l26.1,36H745.6l-26.2-36h-8.5v36Zm13.8-39.6h15.5a19.3,19.3,0,0,0,14.1-5.9,19.8,19.8,0,0,0,0-28,19.2,19.2,0,0,0-14.1-5.8H710.9Z" transform="translate(-12.3 -4.2)"/>
        <path class="cls-1" d="M850.8,861.2v3.7H819.6v79.3H805.8V864.9H774.6v-3.7Z" transform="translate(-12.3 -4.2)"/>
        <path class="cls-1" d="M871.9,944.2v-83h13.8v83Z" transform="translate(-12.3 -4.2)"/>
        <path class="cls-1" d="M911.5,861.2h55.4v3.7H925.3v32.2H953v3.7H925.3v39.7h41.6v3.7H911.5Z" transform="translate(-12.3 -4.2)"/>
        <path class="cls-1" d="M1044.1,872.8a44.1,44.1,0,0,0-6.4-4.2,40.7,40.7,0,0,0-9.3-3.6,44.7,44.7,0,0,0-9.6-1h-1.4a23.2,23.2,0,0,0-5.9.7,20.4,20.4,0,0,0-5.5,2.2,14.8,14.8,0,0,0-3.7,2.9,9.8,9.8,0,0,0-2.2,4,10.1,10.1,0,0,0-.4,2.9c0,.4.1,1.1.2,2.1a10.1,10.1,0,0,0,1.3,3.3,19.1,19.1,0,0,0,3.8,4.8,29.3,29.3,0,0,0,4.8,3.9c3.3,2,6.6,3.9,10,5.7l1.3.7,7.3,4.1a59.2,59.2,0,0,1,7,4.5,35,35,0,0,1,5.1,4.4,23.6,23.6,0,0,1,4,5.4,18,18,0,0,1,2.3,8.7,6.2,6.2,0,0,1-.1,1.3,20.4,20.4,0,0,1-2,7.2,21.8,21.8,0,0,1-4.4,5.6,26.7,26.7,0,0,1-5.9,4,31.4,31.4,0,0,1-8,2.7,48.1,48.1,0,0,1-8.4,1h-1.3a56.9,56.9,0,0,1-8.3-.6,45.5,45.5,0,0,1-9-2.2,40.4,40.4,0,0,1-13.7-8.1l2.6-2.6a39.2,39.2,0,0,0,6.4,4.2,36.2,36.2,0,0,0,9.3,3.5,43.4,43.4,0,0,0,10.1,1.1h1a28.7,28.7,0,0,0,5.8-.7,22.5,22.5,0,0,0,5.6-2.2,19.9,19.9,0,0,0,3.6-2.9,10.3,10.3,0,0,0,2.7-6.7,11.2,11.2,0,0,0-.3-2.2,9.3,9.3,0,0,0-1.2-3.4,17.9,17.9,0,0,0-3.9-4.8,26.3,26.3,0,0,0-4.9-3.9q-4.8-3-9.9-5.7l-1.4-.8c-2.5-1.3-4.9-2.6-7.2-4s-4.7-2.9-7-4.5a42.3,42.3,0,0,1-5.1-4.4,34.3,34.3,0,0,1-4-5.4,18.2,18.2,0,0,1-2.2-8.8v-1.2a19.8,19.8,0,0,1,2-7.2,20.2,20.2,0,0,1,4.4-5.6,24.5,24.5,0,0,1,5.9-4,31.7,31.7,0,0,1,8-2.8,46.9,46.9,0,0,1,8.4-.9h1.4a56.6,56.6,0,0,1,8.2.6,41.6,41.6,0,0,1,9.1,2.2,41,41,0,0,1,13.6,8.1Z" transform="translate(-12.3 -4.2)"/>
      </g>
    </g>
  </g>
</svg>
