<svg width="308" height="481" viewBox="0 0 308 481" fill="none" xmlns="http://www.w3.org/2000/svg">
<path opacity="0.8" d="M32.459 279.298L120.681 173.933L175.119 185.97M32.459 288.416L120.681 183.052L175.119 195.088M32.459 293.888L120.681 188.523L175.119 200.559M32.459 299.359L120.681 193.994L175.119 206.03M32.459 304.83L120.681 199.465L175.119 211.502M32.459 311.213L120.681 205.848L175.119 217.885L197.915 195.59L326.395 228.644M32.459 318.508L120.681 213.143L175.119 225.179M32.459 325.802L120.681 220.438L175.119 232.474M32.459 334.009L120.681 228.644L175.119 240.681M32.459 342.216L120.681 236.851L175.119 248.888M32.459 351.334L120.681 245.97L175.119 258.006M32.459 360.453L120.681 255.088L175.119 267.125L216.152 226.912L368.933 266.258M32.459 370.483L120.681 265.119L175.119 277.155M32.459 380.514L120.681 275.149L175.119 287.185M175.119 261.198L216.152 220.985L368.933 260.331M175.119 274.875L216.152 234.663L368.933 274.009M175.119 283.082L216.152 242.869L368.933 282.216M175.119 291.289L216.152 251.076L368.933 290.423M175.119 300.863L216.152 260.65L368.933 299.997M175.119 310.438L216.152 270.225L368.933 309.571M175.119 321.38L216.152 281.167L368.933 320.514M368.933 343.766L216.152 304.419L175.119 344.632M368.933 356.076L216.152 316.729L175.119 356.942M368.933 369.754L216.152 330.407L175.119 370.62M368.933 385.255L216.152 345.909L175.119 386.122M368.933 401.669L216.152 362.322L175.119 402.535M368.933 437.231L216.152 397.885L175.119 438.097M368.933 456.38L216.152 417.033L175.119 457.246M197.413 476.441L216.152 458.067L287.505 476.441M1 428.568L120.681 285.635L175.119 297.672M1 446.805L120.681 303.872L175.119 315.909M1 464.131L120.681 321.198L175.119 333.234L216.152 293.021L368.933 332.368M175.119 349.647L120.681 337.611L4.41945 476.441M175.119 365.149L120.681 353.112L17.4134 476.441M175.119 379.739L120.681 367.702L29.6322 476.441M175.119 393.416L120.681 381.38L41.076 476.441M51.7903 476.441L120.681 394.146L175.119 406.182M62.459 476.441L120.681 406.912L175.119 418.948L216.152 378.736L368.933 418.082M175.119 430.802L120.681 418.766L72.3982 476.441M81.5623 476.441L120.681 429.708L175.119 441.745M175.119 452.687L120.681 440.65L90.7265 476.441M99.1155 478.812L120.681 453.052L175.119 465.134M107.505 481L120.681 465.271L175.119 477.307L216.152 437.094L368.933 476.441M76.0456 119.313L175.119 1L308.979 35.4681M76.0456 122.049L175.119 3.73556L308.979 38.2036M76.0456 125.24L175.119 6.92705L308.979 41.3951M76.0456 128.432L175.119 10.1185L308.979 44.5866M76.0456 132.079L175.119 13.766L308.979 48.234M76.0456 135.726L175.119 17.4134L308.979 51.8815M76.0456 139.83L175.119 21.5167L308.979 55.9848M76.0456 143.933L175.119 25.6201L308.979 60.0881M76.0456 148.036L175.119 29.7234L308.979 64.1915M76.0456 152.14L175.119 33.8267L308.979 68.2948M76.0456 156.699L175.119 38.386L308.979 72.8541M76.0456 161.258L175.119 42.9453L308.979 77.4134M155.24 71.7143L175.119 47.9605L197.869 53.7964M158.796 72.4894L175.119 52.9757L193.766 57.7629M162.672 73.31L175.119 58.4468L189.343 62.0942M166.547 74.1763L175.119 63.9179L184.921 66.4255M151.684 70.9392L175.119 76.0456L197.915 53.7052L326.395 86.8055M76.0456 166.729L152.322 75.6353L175.119 80.6049L197.915 58.2644L326.395 91.3647M76.0456 171.289L152.322 80.1945L175.119 85.1641L197.915 62.8237L326.395 95.924M76.0456 177.216L152.322 86.1216L175.119 91.0912L197.915 68.7508L326.395 101.851M76.0456 183.143L152.322 92.0486L175.119 97.0182L197.915 74.6778L326.395 107.778M76.0456 190.438L152.322 99.3435L175.119 104.313L197.915 81.9726L326.395 115.073M76.0456 197.733L152.322 106.638L175.119 111.608L197.915 89.2675L326.395 122.368M76.0456 206.395L152.322 115.301L175.119 120.271L197.915 97.9301L326.395 131.03M76.0456 215.058L152.322 123.964L175.119 128.933L197.915 106.593L326.395 139.693M76.0456 223.72L152.322 132.626L175.119 137.596L197.915 115.255L326.395 148.356M124.967 174.891L152.322 142.201L175.119 147.17L197.915 124.83L326.395 157.93M131.714 176.395L152.322 151.775L175.119 156.745L197.915 134.404L326.395 167.505M139.465 178.082L152.322 162.717L175.119 167.687L197.915 145.347L326.395 178.447M147.17 179.815L152.322 173.66L175.119 178.629L197.915 156.289L326.395 189.389M326.395 201.289L197.915 168.188L175.119 190.529L120.681 178.492L32.459 283.857M175.119 203.705L197.915 181.365L326.395 214.465M175.119 230.605L197.915 208.264L326.395 241.365M175.119 245.65L197.915 223.31L210.453 226.547" stroke="url(#paint0_linear)"/>
<defs>
<linearGradient id="paint0_linear" x1="155.771" y1="-24.6" x2="168.826" y2="437.431" gradientUnits="userSpaceOnUse">
<stop offset="0.0558454" stop-color="#555555"/>
<stop offset="0.494792" stop-color="#888888"/>
<stop offset="1" stop-color="#555555"/>
</linearGradient>
</defs>
</svg>
