<svg width="46" height="45" viewBox="0 0 46 45" fill="none" xmlns="http://www.w3.org/2000/svg">
<rect x="0.25" width="45.75" height="44.25" rx="22.125" fill="#404040" fill-opacity="0.75"/>
<path fill-rule="evenodd" clip-rule="evenodd" d="M23.125 26.8125C25.7138 26.8125 27.8125 24.7138 27.8125 22.125C27.8125 19.5362 25.7138 17.4375 23.125 17.4375C20.5362 17.4375 18.4375 19.5362 18.4375 22.125C18.4375 24.7138 20.5362 26.8125 23.125 26.8125ZM23.125 25.25C24.8509 25.25 26.25 23.8509 26.25 22.125C26.25 20.3991 24.8509 19 23.125 19C21.3991 19 20 20.3991 20 22.125C20 23.8509 21.3991 25.25 23.125 25.25Z" fill="white"/>
<path d="M27.8125 16.6562C27.381 16.6562 27.0312 17.006 27.0312 17.4375C27.0312 17.869 27.381 18.2188 27.8125 18.2188C28.244 18.2188 28.5938 17.869 28.5938 17.4375C28.5938 17.006 28.244 16.6562 27.8125 16.6562Z" fill="white"/>
<path fill-rule="evenodd" clip-rule="evenodd" d="M15.0422 16.0907C14.5312 17.0934 14.5312 18.406 14.5312 21.0313V23.2188C14.5312 25.844 14.5312 27.1566 15.0422 28.1593C15.4916 29.0413 16.2087 29.7584 17.0907 30.2078C18.0934 30.7188 19.406 30.7188 22.0313 30.7188H24.2188C26.844 30.7188 28.1566 30.7188 29.1593 30.2078C30.0413 29.7584 30.7584 29.0413 31.2078 28.1593C31.7188 27.1566 31.7188 25.844 31.7188 23.2188V21.0313C31.7188 18.406 31.7188 17.0934 31.2078 16.0907C30.7584 15.2087 30.0413 14.4916 29.1593 14.0422C28.1566 13.5312 26.844 13.5312 24.2188 13.5312H22.0313C19.406 13.5312 18.0934 13.5312 17.0907 14.0422C16.2087 14.4916 15.4916 15.2087 15.0422 16.0907ZM24.2188 15.0938H22.0313C20.6928 15.0938 19.783 15.095 19.0798 15.1524C18.3947 15.2084 18.0444 15.3098 17.8 15.4344C17.212 15.734 16.734 16.212 16.4344 16.8C16.3098 17.0444 16.2084 17.3947 16.1524 18.0798C16.095 18.783 16.0938 19.6928 16.0938 21.0313V23.2188C16.0938 24.5572 16.095 25.467 16.1524 26.1702C16.2084 26.8553 16.3098 27.2056 16.4344 27.45C16.734 28.038 17.212 28.516 17.8 28.8156C18.0444 28.9402 18.3947 29.0416 19.0798 29.0976C19.783 29.155 20.6928 29.1562 22.0313 29.1562H24.2188C25.5572 29.1562 26.467 29.155 27.1702 29.0976C27.8553 29.0416 28.2056 28.9402 28.45 28.8156C29.038 28.516 29.516 28.038 29.8156 27.45C29.9402 27.2056 30.0416 26.8553 30.0976 26.1702C30.155 25.467 30.1562 24.5572 30.1562 23.2188V21.0313C30.1562 19.6928 30.155 18.783 30.0976 18.0798C30.0416 17.3947 29.9402 17.0444 29.8156 16.8C29.516 16.212 29.038 15.734 28.45 15.4344C28.2056 15.3098 27.8553 15.2084 27.1702 15.1524C26.467 15.095 25.5572 15.0938 24.2188 15.0938Z" fill="white"/>
</svg>
